#!OML:ASF H:\ManfredETheater\Project 1\Capture day 1\Session 1\subject.ASF
:FULLY-SPECIFIED
:DEGREES
218
root 0.0811689 17.0363 -37.3691 -158.775 -6.96795 182.662
lowerback 13.3852 2.55316 5.82693
upperback -2.27804 4.45968 1.57326
thorax -9.68097 1.81813 -2.5233
lowerneck -21.2507 -5.53031 -4.14207
upperneck 6.51482 -6.60068 1.28456
head 5.51351 -3.31123 0.349945
rclavicle -5.52621e-014 -3.65764e-014
rhumerus -26.2082 16.8546 -79.7717
rradius 129.403
rwrist -6.73078
rhand -32.3495 10.3951
rfingers 7.12502
rthumb -5.58619 -19.5113
lclavicle -5.52621e-014 -3.65764e-014
lhumerus -92.7366 -10.5032 95.2106
lradius 123.584
lwrist 23.6946
lhand -21.7134 -15.9174
lfingers 7.12502
lthumb 4.68554 14.0108
rfemur 11.6099 0.152042 28.1676
rtibia 8.16993
rfoot 25.5775 -15.3381
rtoes 63.1009
lfemur -71.3721 5.26494 -18.2187
ltibia 71.1147
lfoot -15.7033 -14.7661
ltoes -10.0094
219
root 0.0420802 17.1043 -37.9002 -159.085 -7.17257 182.73
lowerback 13.1756 2.64969 5.98033
upperback -2.23661 4.58675 1.41587
thorax -9.47834 1.87749 -2.78925
lowerneck -21.3359 -5.70079 -4.1205
upperneck 6.88134 -6.83591 1.47172
head 5.65645 -3.40128 0.372191
rclavicle -2.22639e-014 -3.02153e-014
rhumerus -25.7789 16.6062 -79.3826
rradius 127.588
rwrist -6.48771
rhand -31.9811 9.43595
rfingers 7.12502
rthumb -5.23052 -20.4795
lclavicle -2.22639e-014 -3.02153e-014
lhumerus -92.7849 -9.13531 93.9338
lradius 124.277
lwrist 24.6528
lhand -21.9157 -15.469
lfingers 7.12502
lthumb 4.49017 14.4635
rfemur 17.1065 0.530021 28.3169
rtibia 1.59028e-014
rfoot 33.6735 -11.2427
rtoes 61.946
lfemur -71.4691 4.61273 -18.1801
ltibia 67.0496
lfoot -15.9319 -14.6976
ltoes -10.0237
220
root 0.00553302 17.1665 -38.4324 -159.377 -7.37574 182.812
lowerback 12.9602 2.74351 6.09582
upperback -2.20058 4.70455 1.27533
thorax -9.28246 1.93517 -3.01238
lowerneck -21.3658 -5.86328 -4.13265
upperneck 7.20614 -7.05972 1.68021
head 5.77999 -3.48535 0.409277
rclavicle -3.06128e-014 -3.10104e-014
rhumerus -25.5772 16.3163 -79.2868
rradius 125.36
rwrist -5.78857
rhand -31.3697 8.41954
rfingers 7.12502
rthumb -4.64013 -21.5096
lclavicle -3.06128e-014 -3.10104e-014
lhumerus -92.5784 -7.72686 92.7401
lradius 124.724
lwrist 25.0796
lhand -22.152 -14.958
lfingers 7.12502
lthumb 4.26204 14.9791
rfemur 18.4349 0.905903 28.5047
rtibia 6.36111e-015
rfoot 37.2818 -9.20675
rtoes 60.6332
lfemur -71.3749 4.0149 -18.0925
ltibia 62.9729
lfoot -16.0844 -14.3941
ltoes -10.0515
221
root -0.0275775 17.2204 -38.9645 -159.658 -7.58468 182.94
lowerback 12.7426 2.8399 6.19425
upperback -2.17176 4.82456 1.16882
thorax -9.09666 1.99516 -3.18849
lowerneck -21.336 -6.02504 -4.19601
upperneck 7.50214 -7.27583 1.90411
head 5.88813 -3.56632 0.461652
rclavicle -5.56597e-015 -4.13472e-014
rhumerus -25.6232 15.9798 -79.46
rradius 122.803
rwrist -4.78162
rhand -30.5849 7.39801
rfingers 7.12502
rthumb -3.88232 -22.5464
lclavicle -5.56597e-015 -4.13472e-014
lhumerus -92.1361 -6.3152 91.6851
lradius 124.928
lwrist 24.9918
lhand -22.4036 -14.415
lfingers 7.12502
lthumb 4.01906 15.5269
rfemur 19.7168 1.27735 28.802
rtibia -1.90833e-014
rfoot 39.8051 -7.34106
rtoes 59.4047
lfemur -71.1396 3.50813 -17.966
ltibia 58.9925
lfoot -16.1433 -13.8542
ltoes -10.2043
